<svg width="3528" height="1119" viewBox="0 0 3528 1119" fill="none" xmlns="http://www.w3.org/2000/svg">
<path d="M954.323 1119H917.618C824.021 902.892 600.122 413.902 484.502 177.648C471.656 153.84 460.644 133.694 449.633 117.211C258.768 915.712 304.649 1009.11 431.281 1036.59L618.475 1067.72L612.969 1098.85H0L5.50571 1067.72L88.0913 1053.07C183.524 1029.26 198.206 963.329 423.94 87.9083C400.082 64.0999 374.388 51.2799 337.683 43.9542L255.098 29.3027L262.439 0H655.179C730.424 212.445 853.385 529.281 994.698 803.995C1159.87 108.054 1141.52 69.5941 1060.77 54.9427L899.266 31.1342L906.607 0H1370.92L1365.42 31.1342L1310.36 42.1227C1231.44 62.2684 1202.08 108.054 1011.22 869.926C989.192 961.497 963.499 1069.55 954.323 1119Z" fill="black"/>
<path d="M1491.8 1117.17C1339.47 1117.17 1207.33 1029.26 1207.33 809.489C1207.33 457.856 1420.22 195.962 1702.85 195.962C1857.01 195.962 1987.31 283.871 1987.31 503.642C1987.31 844.286 1776.26 1117.17 1491.8 1117.17ZM1656.97 232.591C1522.99 232.591 1389.02 582.393 1389.02 851.612C1389.02 999.957 1447.75 1080.54 1543.18 1080.54C1675.32 1080.54 1809.29 772.861 1809.29 461.519C1809.29 322.331 1756.07 232.591 1656.97 232.591Z" fill="black"/>
<path d="M2257.26 1098.85H2059.05C2121.45 932.195 2249.92 512.799 2249.92 380.936C2249.92 355.296 2238.91 338.813 2222.39 338.813C2191.19 338.813 2145.31 388.262 2086.58 483.496L2070.07 463.35C2152.65 316.836 2244.41 197.794 2343.52 197.794C2391.23 197.794 2420.6 238.085 2420.6 318.668C2420.6 432.216 2345.35 732.57 2297.64 899.229L2308.65 904.723C2490.34 384.599 2596.78 197.794 2695.88 197.794C2760.11 197.794 2778.47 280.208 2772.96 393.756C2594.94 393.756 2471.98 435.879 2257.26 1098.85Z" fill="black"/>
<path d="M3348.15 926.7C3348.15 956.003 3359.16 974.318 3377.51 974.318C3408.71 974.318 3454.59 924.869 3511.48 829.635L3528 849.781C3445.41 994.463 3351.82 1117.17 3252.71 1117.17C3201.33 1117.17 3166.46 1078.71 3166.46 996.295C3166.46 864.432 3239.87 586.056 3287.58 421.228L3276.57 417.565C3074.7 919.375 2938.89 1119 2812.26 1119C2729.67 1119 2659.93 1049.41 2659.93 906.555C2659.93 573.236 2957.24 168.491 3518.82 205.119C3456.43 402.913 3348.15 791.175 3348.15 926.7ZM2904.02 979.812C2981.1 979.812 3096.72 838.792 3324.29 241.748C3006.79 302.185 2843.46 637.336 2843.46 868.095C2843.46 950.509 2867.31 979.812 2904.02 979.812Z" fill="black"/>
</svg>
